<svg width="22" height="22" viewBox="0 0 22 22" fill="none" xmlns="http://www.w3.org/2000/svg">
<path d="M19.9983 1.48828L17.9983 3.48828M17.9983 3.48828L20.9983 6.48828L17.4983 9.98828L14.4983 6.98828M17.9983 3.48828L14.4983 6.98828M10.3883 11.0983C10.9047 11.6077 11.3151 12.2143 11.5961 12.8831C11.877 13.5518 12.0229 14.2695 12.0253 14.9949C12.0278 15.7203 11.8867 16.439 11.6102 17.1096C11.3338 17.7802 10.9274 18.3895 10.4145 18.9024C9.90155 19.4153 9.29224 19.8217 8.62162 20.0982C7.951 20.3747 7.23232 20.5157 6.50695 20.5133C5.78159 20.5109 5.06386 20.365 4.39511 20.084C3.72636 19.8031 3.11979 19.3926 2.61032 18.8763C1.60845 17.839 1.05408 16.4497 1.06661 15.0076C1.07915 13.5655 1.65757 12.186 2.67732 11.1663C3.69706 10.1465 5.07653 9.56811 6.51861 9.55557C7.9607 9.54304 9.35001 10.0974 10.3873 11.0993L10.3883 11.0983ZM10.3883 11.0983L14.4983 6.98828" stroke="black" stroke-width="2" stroke-linecap="round" stroke-linejoin="round"/>
</svg>
