<svg width="21" height="20" viewBox="0 0 21 20" fill="none" xmlns="http://www.w3.org/2000/svg">
<path fill-rule="evenodd" clip-rule="evenodd" d="M15.653 0.720127C16.6306 0.624174 17.5852 1.05644 18.515 1.98621C19.4447 2.91597 19.877 3.87062 19.781 4.84814C19.689 5.78632 19.1246 6.55394 18.515 7.16354L17.5839 8.09462C17.5773 8.10149 17.5705 8.10822 17.5637 8.11482L11.9396 13.7389C11.7402 13.9318 11.4834 14.0972 11.2392 14.22C10.9966 14.3419 10.7061 14.452 10.424 14.4923L7.91188 14.8512C7.26063 14.9408 6.62811 14.7637 6.18142 14.3188C5.73368 13.8728 5.55489 13.2397 5.6507 12.5841C5.65077 12.5836 5.65085 12.5831 5.65092 12.5826L6.0085 10.0796C6.00856 10.0791 6.00863 10.0786 6.00869 10.0782C6.04874 9.79279 6.15825 9.50036 6.28118 9.25577C6.40443 9.01057 6.57229 8.75156 6.77097 8.55288L12.3864 2.9374C12.393 2.93061 12.3997 2.92394 12.4065 2.91738L13.3376 1.98621C13.9472 1.37661 14.7149 0.812218 15.653 0.720127ZM12.6412 4.80402L7.83163 9.61354C7.78032 9.66485 7.69818 9.77668 7.62142 9.92939C7.54456 10.0823 7.50422 10.2143 7.49411 10.2869L7.49376 10.2893L7.13543 12.7976L7.13502 12.8005C7.09799 13.0527 7.17344 13.1897 7.23993 13.256C7.30768 13.3234 7.44967 13.4002 7.70566 13.3654C7.70623 13.3654 7.70681 13.3653 7.70739 13.3652L10.2119 13.0074C10.2798 12.9977 10.4102 12.9578 10.5655 12.8798C10.7163 12.804 10.833 12.7212 10.893 12.6642L15.6984 7.85877C14.3692 7.20475 13.2932 6.13012 12.6412 4.80402ZM16.8382 6.71902C15.4207 6.18881 14.3057 5.07311 13.7813 3.66385L14.3983 3.04687C14.922 2.52313 15.3794 2.25419 15.7996 2.21295C16.1804 2.17557 16.7174 2.30997 17.4543 3.04687C18.1912 3.78377 18.3256 4.32079 18.2882 4.70161C18.247 5.12176 17.978 5.57914 17.4543 6.10288L16.8382 6.71902ZM2.99181 2.49038C4.13877 1.34341 5.844 0.916539 8.0013 0.916539H9.66797C10.0822 0.916539 10.418 1.25233 10.418 1.66654C10.418 2.08075 10.0822 2.41654 9.66797 2.41654H8.0013C5.99194 2.41654 4.7805 2.823 4.05247 3.55104C3.32443 4.27907 2.91797 5.49051 2.91797 7.49987V12.4999C2.91797 14.5092 3.32443 15.7207 4.05247 16.4487C4.7805 17.1767 5.99194 17.5832 8.0013 17.5832H13.0013C15.0107 17.5832 16.2221 17.1767 16.9501 16.4487C17.6782 15.7207 18.0846 14.5092 18.0846 12.4999V10.8332C18.0846 10.419 18.4204 10.0832 18.8346 10.0832C19.2488 10.0832 19.5846 10.419 19.5846 10.8332V12.4999C19.5846 14.6572 19.1578 16.3624 18.0108 17.5094C16.8638 18.6563 15.1586 19.0832 13.0013 19.0832H8.0013C5.844 19.0832 4.13877 18.6563 2.99181 17.5094C1.84484 16.3624 1.41797 14.6572 1.41797 12.4999V7.49987C1.41797 5.34257 1.84484 3.63734 2.99181 2.49038Z" fill="white"/>
</svg>
